# xmcd
#
# Track frame offsets: 
#        150
#        16428
#        29848
#        55630
#        68531
#        97407
#        112001
#        134253
#        151993
#        160799
#        181566
#
# Disc length: 2675 seconds
#
# Revision: 0
# Processed by: cddbd v1.5.2PL0 Copyright (c) Steve Scherf et al.
# Submitted via: ExactAudioCopy v1.3
#
DISCID=8c0a710b
DTITLE=Barrelhouse - Barrelhouse
DYEAR=1975
DGENRE=Blues Rock, Chicago Blues
TTITLE0=In The Mood
TTITLE1=Way Down Low
TTITLE2=Worried Life Blues
TTITLE3=South Side Stomp
TTITLE4=If You Really Wanna Leave
TTITLE5=Dirty Dozen
TTITLE6=Get Like You Used To Be
TTITLE7=Harris' Country Line Up
TTITLE8=Twenty Nine Ways
TTITLE9=Going Down
TTITLE10=You Don't Have To Go
EXTD=
EXTT0=
EXTT1=
EXTT2=
EXTT3=
EXTT4=
EXTT5=
EXTT6=
EXTT7=
EXTT8=
EXTT9=
EXTT10=
PLAYORDER=
